<svg width="118" height="56" viewBox="0 0 118 56" fill="none" xmlns="http://www.w3.org/2000/svg">
<path d="M16.1729 28.767C18.2551 28.767 20.0299 29.5304 21.4974 31.0574C22.9648 32.5843 23.6985 34.4285 23.6985 36.59C23.6985 38.7713 22.9648 40.6255 21.4974 42.1524C20.0498 43.6595 18.275 44.4131 16.1729 44.4131C13.714 44.4131 11.84 43.4315 10.5511 41.4683V44.0264H7.9632V23.2046H10.5511V31.7118C11.84 29.7486 13.714 28.767 16.1729 28.767ZM15.8457 41.9144C17.333 41.9144 18.5823 41.4088 19.5937 40.3974C20.605 39.3464 21.1107 38.0773 21.1107 36.59C21.1107 35.0829 20.605 33.8237 19.5937 32.8123C18.5823 31.7812 17.333 31.2656 15.8457 31.2656C14.3386 31.2656 13.0794 31.7812 12.0681 32.8123C11.0567 33.8237 10.5511 35.0829 10.5511 36.59C10.5511 38.0773 11.0567 39.3464 12.0681 40.3974C13.0794 41.4088 14.3386 41.9144 15.8457 41.9144ZM37.0487 37.0362V29.1536H39.6365V44.0264H37.0487V41.8847C36.0175 43.5703 34.4112 44.4131 32.2299 44.4131C30.4848 44.4131 29.0868 43.8677 28.0358 42.7771C26.9848 41.6666 26.4593 40.1694 26.4593 38.2855V29.1536H29.0471V38.1368C29.0471 39.3266 29.3743 40.2586 30.0287 40.9328C30.6831 41.6071 31.5854 41.9442 32.7356 41.9442C34.0642 41.9442 35.1152 41.5377 35.8886 40.7246C36.662 39.8918 37.0487 38.6623 37.0487 37.0362ZM44.8852 26.4468C44.3894 26.4468 43.973 26.2783 43.6359 25.9411C43.2988 25.604 43.1302 25.1975 43.1302 24.7216C43.1302 24.2457 43.2988 23.8391 43.6359 23.502C43.973 23.1451 44.3894 22.9666 44.8852 22.9666C45.3611 22.9666 45.7676 23.1451 46.1048 23.502C46.4419 23.8391 46.6104 24.2457 46.6104 24.7216C46.6104 25.1975 46.4419 25.604 46.1048 25.9411C45.7676 26.2783 45.3611 26.4468 44.8852 26.4468ZM46.1642 44.0264H43.5764V29.1536H46.1642V44.0264ZM62.4269 31.7118V23.2046H65.0147V44.0264H62.4269V41.4683C61.1577 43.4315 59.2838 44.4131 56.805 44.4131C54.703 44.4131 52.9282 43.6595 51.4805 42.1524C50.0131 40.6255 49.2794 38.7713 49.2794 36.59C49.2794 34.4285 50.0131 32.5843 51.4805 31.0574C52.948 29.5304 54.7228 28.767 56.805 28.767C59.2838 28.767 61.1577 29.7486 62.4269 31.7118ZM57.1322 41.9144C58.6393 41.9144 59.8985 41.4088 60.9098 40.3974C61.9212 39.3464 62.4269 38.0773 62.4269 36.59C62.4269 35.0829 61.9212 33.8237 60.9098 32.8123C59.8985 31.7812 58.6393 31.2656 57.1322 31.2656C55.6449 31.2656 54.3956 31.7812 53.3842 32.8123C52.3729 33.8237 51.8672 35.0829 51.8672 36.59C51.8672 38.0773 52.3729 39.3464 53.3842 40.3974C54.3956 41.4088 55.6449 41.9144 57.1322 41.9144ZM71.5234 44.0264H68.9355V22.3122H71.5234V44.0264ZM77.1074 44.3536C76.572 44.3536 76.1159 44.1652 75.7391 43.7884C75.3623 43.4116 75.1739 42.9555 75.1739 42.4201C75.1739 41.8847 75.3623 41.4286 75.7391 41.0518C76.1159 40.675 76.572 40.4867 77.1074 40.4867C77.6626 40.4867 78.1187 40.675 78.4757 41.0518C78.8525 41.4286 79.0408 41.8847 79.0408 42.4201C79.0408 42.9555 78.8525 43.4116 78.4757 43.7884C78.1187 44.1652 77.6626 44.3536 77.1074 44.3536ZM84.9353 33.1693C84.9353 34.1211 85.9169 34.8648 87.8801 35.4002C88.6138 35.5588 89.2286 35.7274 89.7243 35.9059C90.2399 36.0645 90.7952 36.3124 91.3901 36.6495C92.0048 36.9866 92.4708 37.4328 92.7881 37.988C93.1054 38.5433 93.264 39.1977 93.264 39.9512C93.264 41.2997 92.7385 42.3805 91.6875 43.1935C90.6365 44.0065 89.3079 44.4131 87.7017 44.4131C86.2739 44.4131 85.0345 44.1057 83.9835 43.4909C82.9523 42.8564 82.2186 42.0037 81.7823 40.9328L84.0132 39.6538C84.2512 40.3677 84.6974 40.9328 85.3518 41.3493C86.0062 41.7657 86.7895 41.9739 87.7017 41.9739C88.594 41.9739 89.3079 41.8054 89.8433 41.4683C90.3787 41.1311 90.6464 40.6255 90.6464 39.9512C90.6464 38.9399 89.6648 38.2062 87.7017 37.7501C87.0473 37.5716 86.5515 37.4328 86.2144 37.3336C85.8773 37.2345 85.4113 37.056 84.8163 36.7982C84.2413 36.5404 83.805 36.2727 83.5075 35.9951C83.2101 35.6976 82.9325 35.311 82.6747 34.835C82.4367 34.3393 82.3177 33.7939 82.3177 33.199C82.3177 31.9101 82.8135 30.8491 83.805 30.0163C84.8163 29.1834 86.0756 28.767 87.5827 28.767C88.7923 28.767 89.8632 29.0446 90.7952 29.5998C91.747 30.1352 92.4609 30.8888 92.9368 31.8605L90.7654 33.08C90.23 31.8109 89.1691 31.1763 87.5827 31.1763C86.8291 31.1763 86.1945 31.3548 85.679 31.7118C85.1832 32.0687 84.9353 32.5545 84.9353 33.1693ZM108.474 42.1524C106.967 43.6595 105.113 44.4131 102.912 44.4131C100.71 44.4131 98.8563 43.6595 97.3492 42.1524C95.8421 40.6453 95.0885 38.7912 95.0885 36.59C95.0885 34.3888 95.8421 32.5347 97.3492 31.0276C98.8563 29.5205 100.71 28.767 102.912 28.767C105.113 28.767 106.967 29.5205 108.474 31.0276C110.001 32.5545 110.764 34.4087 110.764 36.59C110.764 38.7713 110.001 40.6255 108.474 42.1524ZM102.912 41.8847C104.399 41.8847 105.648 41.379 106.659 40.3677C107.671 39.3563 108.177 38.0971 108.177 36.59C108.177 35.0829 107.671 33.8237 106.659 32.8123C105.648 31.801 104.399 31.2953 102.912 31.2953C101.444 31.2953 100.205 31.801 99.1934 32.8123C98.182 33.8237 97.6764 35.0829 97.6764 36.59C97.6764 38.0971 98.182 39.3563 99.1934 40.3677C100.205 41.379 101.444 41.8847 102.912 41.8847Z" fill="black"/>
<rect x="6.02661" y="4" width="28.9491" height="11" rx="3.71818" fill="#572EF8" fill-opacity="0.8"/>
<path d="M13.9272 12H13.191L12.7671 10.8325H10.4246L10.0008 12H9.26456L11.2055 6.79455H11.9863L13.9272 12ZM11.5921 7.61998L10.6626 10.1855H12.5291L11.5921 7.61998ZM15.2328 6.79455V11.3456H17.4786V12H14.5412V6.79455H15.2328ZM18.1723 6.79455H20.0611C20.537 6.79455 20.9361 6.95567 21.2584 7.27791C21.5806 7.60015 21.7417 7.99676 21.7417 8.46773C21.7417 8.9387 21.5806 9.3353 21.2584 9.65755C20.9361 9.97979 20.537 10.1409 20.0611 10.1409H18.8639V12H18.1723V6.79455ZM18.8639 9.49395H20.0611C20.3536 9.49395 20.5916 9.39727 20.775 9.20393C20.9634 9.00067 21.0576 8.75527 21.0576 8.46773C21.0576 8.17027 20.9634 7.92488 20.775 7.73153C20.5866 7.53818 20.3487 7.44151 20.0611 7.44151H18.8639V9.49395ZM25.7785 9.00315V6.79455H26.4627V12H25.7785V9.65755H23.2501V12H22.5586V6.79455H23.2501V9.00315H25.7785ZM31.741 12H31.0048L30.5809 10.8325H28.2385L27.8146 12H27.0784L29.0193 6.79455H29.8001L31.741 12ZM29.406 7.61998L28.4765 10.1855H30.343L29.406 7.61998Z" fill="white"/>
</svg>
